<svg xmlns="http://www.w3.org/2000/svg" xmlns:xlink="http://www.w3.org/1999/xlink" width="500" zoomAndPan="magnify" viewBox="0 0 375 374.999991" height="500" preserveAspectRatio="xMidYMid meet" version="1.0"><path fill="#6c757d" d="M 187.5 0.078125 C 83.988281 0.078125 0.078125 83.988281 0.078125 187.5 C 0.078125 291.011719 83.988281 374.921875 187.5 374.921875 C 291.011719 374.921875 374.921875 291.011719 374.921875 187.5 C 374.921875 83.988281 291.011719 0.078125 187.5 0.078125 Z M 187.5 353.285156 C 95.941406 353.285156 21.714844 279.058594 21.714844 187.5 C 21.714844 95.941406 95.941406 21.714844 187.5 21.714844 C 279.058594 21.714844 353.285156 95.941406 353.285156 187.5 C 353.285156 279.058594 279.058594 353.285156 187.5 353.285156 Z M 187.5 353.285156 " fill-opacity="1" fill-rule="nonzero"/><path fill="#6c757d" d="M 187.5 69.523438 C 144.394531 69.523438 109.457031 104.460938 109.457031 147.566406 C 109.457031 190.667969 144.394531 225.609375 187.5 225.609375 C 230.605469 225.609375 265.542969 190.667969 265.542969 147.566406 C 265.542969 104.46875 230.605469 69.523438 187.5 69.523438 Z M 187.5 204.125 C 156.269531 204.125 130.949219 178.804688 130.949219 147.574219 C 130.949219 116.339844 156.269531 91.019531 187.5 91.019531 C 218.730469 91.019531 244.050781 116.339844 244.050781 147.574219 C 244.050781 178.804688 218.730469 204.125 187.5 204.125 Z M 187.5 204.125 " fill-opacity="1" fill-rule="nonzero"/><path fill="#6c757d" d="M 187.5 204.144531 C 137.027344 204.144531 93.484375 233.339844 72.507812 275.703125 C 77.273438 281.90625 82.515625 287.707031 88.203125 293.066406 C 103.914062 253.574219 142.402344 225.617188 187.5 225.617188 C 232.597656 225.617188 271.085938 253.574219 286.796875 293.066406 C 292.484375 287.714844 297.726562 281.914062 302.492188 275.703125 C 281.515625 233.339844 237.972656 204.144531 187.5 204.144531 Z M 187.5 204.144531 " fill-opacity="1" fill-rule="nonzero"/></svg>
