<svg xmlns="http://www.w3.org/2000/svg" xmlns:xlink="http://www.w3.org/1999/xlink" width="320" zoomAndPan="magnify" viewBox="0 0 240 266.250005" height="355" preserveAspectRatio="xMidYMid meet" version="1.0"><path fill="#083706" d="M 129.820312 1.566406 L 104.753906 191.179688 L 29.925781 191.179688 L 1.464844 1.566406 L 53.464844 1.566406 C 59.476562 53.804688 63.765625 97.960938 66.339844 134.03125 C 68.917969 97.570312 71.613281 65.167969 74.425781 36.828125 L 77.820312 1.566406 Z M 129.820312 1.566406 " fill-opacity="1" fill-rule="nonzero"/><path fill="#1a9710" d="M 237.546875 1.566406 L 237.546875 39.519531 L 208.273438 39.519531 L 208.273438 191.179688 L 158.964844 191.179688 L 158.964844 39.519531 L 129.800781 39.519531 L 129.800781 1.566406 Z M 237.546875 1.566406 " fill-opacity="1" fill-rule="nonzero"/><path fill="#083706" d="M 42.425781 203.171875 L 34.519531 263.011719 L 10.898438 263.011719 L 1.917969 203.171875 L 18.332031 203.171875 C 20.222656 219.65625 21.578125 233.589844 22.390625 244.96875 C 23.207031 233.460938 24.054688 223.234375 24.9375 214.289062 L 26.011719 203.171875 Z M 42.425781 203.171875 " fill-opacity="1" fill-rule="nonzero"/><path fill="#083706" d="M 45.074219 203.171875 L 60.636719 203.171875 L 60.636719 263.011719 L 45.074219 263.011719 Z M 45.074219 203.171875 " fill-opacity="1" fill-rule="nonzero"/><path fill="#083706" d="M 103.21875 229.265625 L 87.652344 229.265625 L 87.652344 218.835938 C 87.652344 215.804688 87.488281 213.917969 87.15625 213.171875 C 86.824219 212.417969 86.085938 212.039062 84.949219 212.039062 C 83.667969 212.039062 82.851562 212.496094 82.507812 213.40625 C 82.167969 214.320312 82 216.292969 82 219.324219 L 82 247.117188 C 82 250.03125 82.167969 251.929688 82.507812 252.820312 C 82.851562 253.699219 83.632812 254.140625 84.847656 254.140625 C 86.003906 254.140625 86.753906 253.699219 87.109375 252.820312 C 87.472656 251.929688 87.652344 249.84375 87.652344 246.5625 L 87.652344 239.0625 L 103.21875 239.0625 L 103.21875 241.382812 C 103.21875 247.574219 102.78125 251.964844 101.90625 254.550781 C 101.03125 257.136719 99.09375 259.402344 96.09375 261.347656 C 93.097656 263.292969 89.410156 264.265625 85.03125 264.265625 C 80.464844 264.265625 76.707031 263.441406 73.753906 261.789062 C 70.792969 260.136719 68.835938 257.851562 67.871094 254.933594 C 66.910156 252.015625 66.433594 247.625 66.433594 241.753906 L 66.433594 224.277344 C 66.433594 219.964844 66.582031 216.730469 66.875 214.574219 C 67.175781 212.417969 68.054688 210.34375 69.519531 208.351562 C 70.992188 206.355469 73.023438 204.78125 75.617188 203.632812 C 78.21875 202.488281 81.210938 201.914062 84.589844 201.914062 C 89.164062 201.914062 92.941406 202.804688 95.921875 204.574219 C 98.910156 206.347656 100.871094 208.5625 101.804688 211.214844 C 102.746094 213.859375 103.21875 217.976562 103.21875 223.566406 Z M 103.21875 229.265625 " fill-opacity="1" fill-rule="nonzero"/><path fill="#1a9710" d="M 140.113281 203.171875 L 140.113281 215.140625 L 130.875 215.140625 L 130.875 263.011719 L 115.320312 263.011719 L 115.320312 215.140625 L 106.113281 215.140625 L 106.113281 203.171875 Z M 140.113281 203.171875 " fill-opacity="1" fill-rule="nonzero"/><path fill="#1a9710" d="M 143.65625 203.171875 L 159.21875 203.171875 L 159.21875 263.011719 L 143.65625 263.011719 Z M 143.65625 203.171875 " fill-opacity="1" fill-rule="nonzero"/><path fill="#1a9710" d="M 165.457031 203.171875 L 181.136719 203.171875 C 185.371094 203.171875 188.628906 203.503906 190.910156 204.167969 C 193.1875 204.832031 194.898438 205.792969 196.042969 207.050781 C 197.191406 208.3125 197.96875 209.832031 198.375 211.621094 C 198.78125 213.402344 198.984375 216.164062 198.984375 219.914062 L 198.984375 225.128906 C 198.984375 228.945312 198.589844 231.726562 197.796875 233.476562 C 197.011719 235.226562 195.5625 236.570312 193.453125 237.511719 C 191.351562 238.449219 188.597656 238.917969 185.195312 238.917969 L 181.023438 238.917969 L 181.023438 263.011719 L 165.457031 263.011719 Z M 181.023438 213.40625 L 181.023438 228.632812 C 181.464844 228.65625 181.847656 228.667969 182.164062 228.667969 C 183.597656 228.667969 184.589844 228.316406 185.140625 227.617188 C 185.699219 226.914062 185.976562 225.457031 185.976562 223.238281 L 185.976562 218.316406 C 185.976562 216.277344 185.65625 214.945312 185.015625 214.335938 C 184.375 213.71875 183.042969 213.40625 181.023438 213.40625 Z M 181.023438 213.40625 " fill-opacity="1" fill-rule="nonzero"/><path fill="#1a9710" d="M 236.421875 221.28125 L 221.976562 221.28125 L 221.976562 216.847656 C 221.976562 214.773438 221.789062 213.453125 221.421875 212.886719 C 221.050781 212.320312 220.429688 212.039062 219.566406 212.039062 C 218.628906 212.039062 217.921875 212.421875 217.4375 213.191406 C 216.964844 213.957031 216.726562 215.109375 216.726562 216.65625 C 216.726562 218.652344 216.992188 220.160156 217.53125 221.167969 C 218.050781 222.179688 219.515625 223.402344 221.929688 224.832031 C 228.851562 228.945312 233.214844 232.320312 235.019531 234.957031 C 236.820312 237.597656 237.722656 241.847656 237.722656 247.707031 C 237.722656 251.976562 237.21875 255.121094 236.21875 257.140625 C 235.222656 259.152344 233.292969 260.847656 230.4375 262.21875 C 227.578125 263.582031 224.253906 264.265625 220.460938 264.265625 C 216.289062 264.265625 212.726562 263.476562 209.78125 261.902344 C 206.839844 260.328125 204.910156 258.320312 204 255.882812 C 203.097656 253.441406 202.644531 249.976562 202.644531 245.488281 L 202.644531 241.574219 L 217.089844 241.574219 L 217.089844 248.859375 C 217.089844 251.097656 217.292969 252.542969 217.699219 253.179688 C 218.105469 253.824219 218.824219 254.140625 219.859375 254.140625 C 220.902344 254.140625 221.671875 253.734375 222.167969 252.921875 C 222.671875 252.105469 222.925781 250.902344 222.925781 249.300781 C 222.925781 245.769531 222.445312 243.46875 221.488281 242.390625 C 220.5 241.304688 218.074219 239.492188 214.203125 236.949219 C 210.335938 234.390625 207.769531 232.535156 206.511719 231.371094 C 205.257812 230.210938 204.21875 228.609375 203.390625 226.5625 C 202.566406 224.523438 202.15625 221.910156 202.15625 218.722656 C 202.15625 214.148438 202.738281 210.800781 203.910156 208.679688 C 205.085938 206.5625 206.980469 204.90625 209.589844 203.714844 C 212.195312 202.515625 215.347656 201.914062 219.046875 201.914062 C 223.085938 201.914062 226.527344 202.566406 229.375 203.871094 C 232.222656 205.179688 234.109375 206.820312 235.03125 208.804688 C 235.957031 210.789062 236.421875 214.160156 236.421875 218.917969 Z M 236.421875 221.28125 " fill-opacity="1" fill-rule="nonzero"/></svg>