<svg xmlns="http://www.w3.org/2000/svg" xmlns:xlink="http://www.w3.org/1999/xlink" width="500" zoomAndPan="magnify" viewBox="0 0 375 374.999991" height="500" preserveAspectRatio="xMidYMid meet" version="1.0"><path fill="#fff" d="M 122.4375 84.726562 C 122.4375 63.339844 139.925781 45.9375 161.3125 45.9375 L 212.964844 45.9375 C 234.320312 45.9375 251.8125 63.339844 251.8125 84.726562 L 251.8125 145.808594 L 122.4375 145.808594 Z M 198.375 249.550781 C 196.9375 250.136719 196.117188 251.542969 196.382812 253.007812 L 205.960938 315.761719 C 206.136719 316.785156 205.816406 317.839844 205.113281 318.660156 C 204.410156 319.511719 203.441406 319.949219 202.359375 319.949219 L 171.890625 319.949219 C 170.804688 319.949219 169.839844 319.511719 169.136719 318.660156 C 168.433594 317.839844 168.109375 316.785156 168.316406 315.761719 L 177.867188 253.007812 C 178.128906 251.542969 177.308594 250.136719 175.875 249.550781 C 161.8125 244.011719 153.84375 229.1875 156.917969 214.21875 C 159.320312 202.527344 168.753906 193.09375 180.445312 190.632812 C 182.640625 190.195312 184.867188 189.929688 187.066406 189.929688 C 194.183594 189.929688 201.070312 192.304688 206.578125 196.816406 C 213.84375 202.734375 218.003906 211.464844 218.003906 220.839844 C 218.003906 233.613281 210.328125 244.863281 198.375 249.550781 Z M 309.554688 145.808594 L 295.054688 145.808594 L 295.054688 80.300781 C 295.054688 36.035156 259.019531 0 214.75 0 L 159.496094 0 C 115.230469 0 79.195312 36.035156 79.195312 80.300781 L 79.195312 145.808594 L 64.691406 145.808594 C 41.902344 145.808594 23.328125 164.441406 23.328125 187.234375 L 23.328125 333.632812 C 23.328125 356.425781 41.902344 375 64.691406 375 L 309.554688 375 C 332.347656 375 350.921875 356.425781 350.921875 333.632812 L 350.921875 187.234375 C 350.921875 164.441406 332.347656 145.808594 309.554688 145.808594 " fill-opacity="1" fill-rule="nonzero"/></svg>
