<svg xmlns="http://www.w3.org/2000/svg" xmlns:xlink="http://www.w3.org/1999/xlink" width="500" zoomAndPan="magnify" viewBox="0 0 375 374.999991" height="500" preserveAspectRatio="xMidYMid meet" version="1.0"><path fill="#fff" d="M 289.828125 100.261719 C 289.828125 101.894531 289.789062 103.523438 289.707031 105.148438 C 289.628906 106.777344 289.507812 108.402344 289.347656 110.027344 C 289.1875 111.648438 288.988281 113.265625 288.75 114.878906 C 288.511719 116.492188 288.230469 118.097656 287.914062 119.695312 C 287.59375 121.292969 287.238281 122.882812 286.84375 124.464844 C 286.445312 126.046875 286.011719 127.617188 285.539062 129.175781 C 285.0625 130.738281 284.550781 132.285156 284.003906 133.820312 C 283.453125 135.355469 282.867188 136.875 282.242188 138.382812 C 281.617188 139.886719 280.957031 141.378906 280.261719 142.851562 C 279.5625 144.324219 278.832031 145.78125 278.0625 147.21875 C 277.292969 148.65625 276.488281 150.074219 275.652344 151.472656 C 274.8125 152.871094 273.941406 154.246094 273.035156 155.601562 C 272.128906 156.957031 271.191406 158.289062 270.21875 159.601562 C 269.246094 160.910156 268.246094 162.195312 267.210938 163.453125 C 266.175781 164.714844 265.109375 165.949219 264.015625 167.15625 C 262.921875 168.363281 261.796875 169.542969 260.644531 170.695312 C 259.492188 171.851562 258.308594 172.972656 257.101562 174.066406 C 255.894531 175.164062 254.660156 176.226562 253.398438 177.261719 C 252.136719 178.296875 250.851562 179.296875 249.542969 180.269531 C 248.234375 181.242188 246.898438 182.179688 245.542969 183.085938 C 244.1875 183.992188 242.8125 184.863281 241.410156 185.699219 C 240.011719 186.539062 238.59375 187.339844 237.15625 188.109375 C 235.71875 188.878906 234.261719 189.613281 232.789062 190.308594 C 231.3125 191.003906 229.824219 191.664062 228.316406 192.289062 C 226.808594 192.914062 225.289062 193.5 223.753906 194.050781 C 222.21875 194.597656 220.671875 195.109375 219.109375 195.582031 C 217.550781 196.054688 215.976562 196.492188 214.394531 196.886719 C 212.816406 197.28125 211.222656 197.640625 209.625 197.957031 C 208.023438 198.277344 206.417969 198.554688 204.804688 198.792969 C 203.191406 199.03125 201.574219 199.234375 199.953125 199.390625 C 198.328125 199.550781 196.703125 199.671875 195.074219 199.753906 C 193.445312 199.832031 191.816406 199.871094 190.183594 199.871094 C 188.554688 199.871094 186.925781 199.832031 185.296875 199.753906 C 183.667969 199.671875 182.042969 199.550781 180.417969 199.390625 C 178.796875 199.234375 177.175781 199.03125 175.566406 198.792969 C 173.953125 198.554688 172.34375 198.277344 170.746094 197.957031 C 169.144531 197.640625 167.554688 197.28125 165.972656 196.886719 C 164.390625 196.492188 162.820312 196.054688 161.261719 195.582031 C 159.699219 195.109375 158.152344 194.597656 156.617188 194.050781 C 155.082031 193.5 153.558594 192.914062 152.054688 192.289062 C 150.546875 191.664062 149.054688 191.003906 147.582031 190.308594 C 146.109375 189.613281 144.652344 188.878906 143.214844 188.109375 C 141.777344 187.339844 140.355469 186.539062 138.957031 185.699219 C 137.558594 184.863281 136.183594 183.992188 134.828125 183.085938 C 133.472656 182.179688 132.136719 181.242188 130.828125 180.269531 C 129.519531 179.296875 128.234375 178.296875 126.972656 177.261719 C 125.710938 176.226562 124.476562 175.164062 123.269531 174.066406 C 122.0625 172.972656 120.878906 171.851562 119.726562 170.695312 C 118.574219 169.542969 117.449219 168.363281 116.355469 167.15625 C 115.257812 165.949219 114.195312 164.714844 113.160156 163.453125 C 112.125 162.195312 111.121094 160.910156 110.152344 159.601562 C 109.179688 158.289062 108.242188 156.957031 107.335938 155.601562 C 106.429688 154.246094 105.558594 152.871094 104.71875 151.472656 C 103.878906 150.074219 103.078125 148.65625 102.308594 147.21875 C 101.539062 145.78125 100.804688 144.324219 100.109375 142.851562 C 99.410156 141.378906 98.75 139.886719 98.128906 138.382812 C 97.503906 136.875 96.917969 135.355469 96.367188 133.820312 C 95.816406 132.285156 95.304688 130.738281 94.832031 129.175781 C 94.359375 127.617188 93.925781 126.046875 93.527344 124.464844 C 93.132812 122.882812 92.773438 121.292969 92.457031 119.695312 C 92.140625 118.097656 91.859375 116.492188 91.621094 114.878906 C 91.382812 113.265625 91.183594 111.648438 91.023438 110.027344 C 90.863281 108.402344 90.742188 106.777344 90.664062 105.148438 C 90.582031 103.523438 90.542969 101.894531 90.542969 100.261719 C 90.542969 98.632812 90.582031 97.003906 90.664062 95.375 C 90.742188 93.746094 90.863281 92.121094 91.023438 90.5 C 91.183594 88.875 91.382812 87.257812 91.621094 85.648438 C 91.859375 84.035156 92.140625 82.429688 92.457031 80.828125 C 92.773438 79.230469 93.132812 77.640625 93.527344 76.058594 C 93.925781 74.476562 94.359375 72.90625 94.832031 71.347656 C 95.304688 69.789062 95.816406 68.238281 96.367188 66.707031 C 96.917969 65.171875 97.503906 63.648438 98.128906 62.144531 C 98.75 60.636719 99.410156 59.148438 100.109375 57.675781 C 100.804688 56.199219 101.539062 54.746094 102.308594 53.308594 C 103.078125 51.871094 103.878906 50.453125 104.71875 49.054688 C 105.558594 47.65625 106.429688 46.277344 107.335938 44.921875 C 108.242188 43.566406 109.179688 42.234375 110.152344 40.925781 C 111.121094 39.617188 112.125 38.332031 113.160156 37.070312 C 114.195312 35.8125 115.257812 34.578125 116.355469 33.371094 C 117.449219 32.160156 118.574219 30.980469 119.726562 29.828125 C 120.878906 28.675781 122.0625 27.550781 123.269531 26.457031 C 124.476562 25.363281 125.710938 24.296875 126.972656 23.261719 C 128.234375 22.230469 129.519531 21.226562 130.828125 20.253906 C 132.136719 19.285156 133.472656 18.347656 134.828125 17.441406 C 136.183594 16.535156 137.558594 15.664062 138.957031 14.824219 C 140.355469 13.988281 141.777344 13.183594 143.214844 12.414062 C 144.652344 11.648438 146.109375 10.914062 147.582031 10.21875 C 149.054688 9.519531 150.546875 8.859375 152.054688 8.234375 C 153.558594 7.613281 155.082031 7.023438 156.617188 6.476562 C 158.152344 5.925781 159.699219 5.414062 161.261719 4.941406 C 162.820312 4.46875 164.390625 4.035156 165.972656 3.636719 C 167.554688 3.242188 169.148438 2.886719 170.746094 2.566406 C 172.34375 2.25 173.953125 1.96875 175.566406 1.730469 C 177.175781 1.492188 178.796875 1.292969 180.417969 1.132812 C 182.042969 0.972656 183.667969 0.851562 185.296875 0.773438 C 186.925781 0.695312 188.554688 0.652344 190.183594 0.652344 C 191.816406 0.652344 193.445312 0.695312 195.074219 0.773438 C 196.703125 0.851562 198.328125 0.972656 199.953125 1.132812 C 201.574219 1.292969 203.191406 1.492188 204.804688 1.730469 C 206.417969 1.96875 208.023438 2.25 209.625 2.566406 C 211.222656 2.886719 212.816406 3.242188 214.394531 3.636719 C 215.976562 4.035156 217.550781 4.46875 219.109375 4.941406 C 220.671875 5.414062 222.21875 5.925781 223.753906 6.476562 C 225.289062 7.023438 226.808594 7.613281 228.316406 8.234375 C 229.824219 8.859375 231.3125 9.519531 232.789062 10.21875 C 234.261719 10.914062 235.71875 11.648438 237.15625 12.414062 C 238.59375 13.183594 240.011719 13.988281 241.410156 14.824219 C 242.8125 15.664062 244.1875 16.535156 245.542969 17.441406 C 246.898438 18.347656 248.234375 19.285156 249.542969 20.253906 C 250.851562 21.226562 252.136719 22.230469 253.398438 23.261719 C 254.660156 24.296875 255.894531 25.363281 257.101562 26.457031 C 258.308594 27.550781 259.492188 28.675781 260.644531 29.828125 C 261.796875 30.980469 262.921875 32.160156 264.015625 33.371094 C 265.109375 34.578125 266.175781 35.8125 267.210938 37.070312 C 268.246094 38.332031 269.246094 39.617188 270.21875 40.925781 C 271.191406 42.234375 272.128906 43.566406 273.035156 44.921875 C 273.941406 46.277344 274.8125 47.65625 275.652344 49.054688 C 276.488281 50.453125 277.292969 51.871094 278.0625 53.308594 C 278.832031 54.746094 279.5625 56.199219 280.261719 57.675781 C 280.957031 59.148438 281.617188 60.636719 282.242188 62.144531 C 282.867188 63.648438 283.453125 65.171875 284.003906 66.707031 C 284.550781 68.238281 285.0625 69.789062 285.539062 71.347656 C 286.011719 72.90625 286.445312 74.476562 286.84375 76.058594 C 287.238281 77.640625 287.59375 79.230469 287.914062 80.828125 C 288.230469 82.429688 288.511719 84.035156 288.75 85.648438 C 288.988281 87.257812 289.1875 88.875 289.347656 90.5 C 289.507812 92.121094 289.628906 93.746094 289.707031 95.375 C 289.789062 97.003906 289.828125 98.632812 289.828125 100.261719 Z M 289.828125 100.261719 " fill-opacity="1" fill-rule="nonzero"/><path fill="#fff" d="M 56.273438 379.8125 L 324.097656 379.8125 C 325.070312 379.800781 326.039062 379.761719 327.011719 379.691406 C 327.980469 379.621094 328.945312 379.523438 329.910156 379.398438 C 330.871094 379.269531 331.832031 379.117188 332.785156 378.929688 C 333.738281 378.746094 334.6875 378.535156 335.625 378.292969 C 336.566406 378.050781 337.5 377.78125 338.425781 377.484375 C 339.351562 377.1875 340.265625 376.863281 341.171875 376.511719 C 342.078125 376.160156 342.972656 375.78125 343.855469 375.378906 C 344.738281 374.972656 345.609375 374.539062 346.464844 374.082031 C 347.320312 373.625 348.164062 373.144531 348.992188 372.636719 C 349.820312 372.125 350.632812 371.59375 351.429688 371.039062 C 352.226562 370.480469 353.003906 369.902344 353.765625 369.296875 C 354.527344 368.695312 355.269531 368.070312 355.992188 367.421875 C 356.71875 366.773438 357.421875 366.105469 358.105469 365.414062 C 358.789062 364.726562 359.453125 364.015625 360.09375 363.285156 C 360.734375 362.554688 361.351562 361.808594 361.949219 361.042969 C 362.546875 360.273438 363.117188 359.492188 363.667969 358.691406 C 364.21875 357.890625 364.742188 357.070312 365.242188 356.238281 C 365.742188 355.40625 366.21875 354.558594 366.667969 353.699219 C 367.117188 352.839844 367.542969 351.964844 367.9375 351.078125 C 368.335938 350.191406 368.707031 349.292969 369.050781 348.386719 C 369.394531 347.476562 369.710938 346.558594 370 345.632812 C 370.289062 344.703125 370.546875 343.769531 370.78125 342.828125 C 371.011719 341.882812 371.21875 340.933594 371.390625 339.980469 C 371.566406 339.023438 371.714844 338.0625 371.832031 337.101562 C 371.949219 336.136719 372.039062 335.167969 372.101562 334.199219 C 372.160156 333.230469 372.191406 332.261719 372.191406 331.289062 C 372.195312 330.316406 372.167969 329.347656 372.113281 328.378906 C 372.054688 327.40625 371.96875 326.441406 371.855469 325.476562 C 371.742188 324.511719 371.597656 323.550781 371.425781 322.597656 C 371.253906 321.640625 371.054688 320.691406 370.824219 319.746094 C 370.597656 318.800781 370.339844 317.867188 370.054688 316.9375 C 369.769531 316.007812 369.457031 315.089844 369.117188 314.179688 C 367.738281 310.691406 366.230469 307.257812 364.589844 303.878906 C 362.953125 300.503906 361.191406 297.191406 359.308594 293.949219 C 357.421875 290.703125 355.417969 287.53125 353.292969 284.4375 C 351.171875 281.34375 348.9375 278.332031 346.585938 275.40625 C 344.238281 272.476562 341.785156 269.640625 339.222656 266.898438 C 336.660156 264.15625 334 261.511719 331.242188 258.964844 C 328.480469 256.421875 325.632812 253.984375 322.691406 251.652344 C 319.746094 249.324219 316.722656 247.105469 313.613281 245 C 310.507812 242.898438 307.324219 240.910156 304.066406 239.046875 C 300.808594 237.179688 297.488281 235.4375 294.101562 233.820312 C 290.714844 232.203125 287.269531 230.714844 283.769531 229.355469 C 280.273438 227.996094 276.726562 226.769531 273.136719 225.675781 C 269.546875 224.582031 265.917969 223.625 262.257812 222.800781 C 258.59375 221.980469 254.90625 221.296875 251.191406 220.75 C 247.476562 220.203125 243.75 219.796875 240.003906 219.53125 C 236.257812 219.261719 232.511719 219.136719 228.757812 219.152344 L 151.613281 219.152344 C 147.863281 219.152344 144.117188 219.289062 140.375 219.566406 C 136.636719 219.84375 132.910156 220.261719 129.199219 220.816406 C 125.492188 221.371094 121.804688 222.066406 118.148438 222.894531 C 114.488281 223.726562 110.867188 224.691406 107.28125 225.789062 C 103.695312 226.886719 100.15625 228.121094 96.660156 229.480469 C 93.164062 230.84375 89.726562 232.335938 86.34375 233.957031 C 82.960938 235.574219 79.640625 237.316406 76.386719 239.183594 C 73.132812 241.046875 69.953125 243.03125 66.847656 245.136719 C 63.742188 247.238281 60.71875 249.453125 57.777344 251.78125 C 54.835938 254.109375 51.988281 256.542969 49.226562 259.082031 C 46.46875 261.625 43.808594 264.261719 41.242188 267 C 38.679688 269.738281 36.222656 272.566406 33.871094 275.488281 C 31.519531 278.410156 29.277344 281.414062 27.152344 284.503906 C 25.023438 287.589844 23.011719 290.753906 21.121094 293.992188 C 19.226562 297.226562 17.457031 300.53125 15.8125 303.902344 C 14.164062 307.269531 12.644531 310.695312 11.253906 314.179688 C 10.914062 315.089844 10.601562 316.007812 10.316406 316.9375 C 10.03125 317.863281 9.773438 318.800781 9.542969 319.746094 C 9.316406 320.6875 9.113281 321.640625 8.941406 322.59375 C 8.769531 323.550781 8.628906 324.511719 8.511719 325.476562 C 8.398438 326.441406 8.3125 327.40625 8.257812 328.378906 C 8.199219 329.347656 8.171875 330.316406 8.175781 331.289062 C 8.175781 332.261719 8.207031 333.230469 8.265625 334.199219 C 8.328125 335.167969 8.417969 336.136719 8.535156 337.101562 C 8.652344 338.0625 8.800781 339.023438 8.972656 339.980469 C 9.148438 340.933594 9.355469 341.882812 9.585938 342.828125 C 9.820312 343.769531 10.078125 344.707031 10.367188 345.632812 C 10.65625 346.5625 10.972656 347.480469 11.316406 348.386719 C 11.660156 349.296875 12.027344 350.195312 12.425781 351.078125 C 12.824219 351.964844 13.246094 352.839844 13.695312 353.703125 C 14.148438 354.5625 14.621094 355.410156 15.121094 356.242188 C 15.625 357.074219 16.148438 357.890625 16.699219 358.691406 C 17.246094 359.492188 17.820312 360.277344 18.417969 361.042969 C 19.011719 361.8125 19.632812 362.558594 20.273438 363.289062 C 20.914062 364.019531 21.578125 364.726562 22.261719 365.417969 C 22.945312 366.109375 23.648438 366.777344 24.371094 367.425781 C 25.097656 368.074219 25.839844 368.699219 26.601562 369.300781 C 27.363281 369.90625 28.140625 370.484375 28.9375 371.042969 C 29.734375 371.597656 30.546875 372.128906 31.375 372.636719 C 32.203125 373.144531 33.046875 373.628906 33.902344 374.085938 C 34.761719 374.542969 35.628906 374.976562 36.511719 375.378906 C 37.394531 375.785156 38.289062 376.164062 39.195312 376.515625 C 40.101562 376.867188 41.019531 377.191406 41.941406 377.488281 C 42.867188 377.785156 43.800781 378.054688 44.742188 378.296875 C 45.683594 378.535156 46.632812 378.75 47.585938 378.933594 C 48.539062 379.117188 49.5 379.273438 50.460938 379.398438 C 51.425781 379.527344 52.390625 379.625 53.359375 379.691406 C 54.328125 379.761719 55.300781 379.800781 56.273438 379.8125 Z M 56.273438 379.8125 " fill-opacity="1" fill-rule="nonzero"/></svg>
